# xmcd CD database file
#
# Track frame offsets:
#	150
#	19553
#	37920
#	52700
#	75978
#	98518
#	113465
#	134913
#	156193
#	172735
#	196710
#	212685
#	234883
#	249328
#
# Disc length: 3562 seconds
#
# Revision: 1
# Processed by: cddbd v1.4PL0 Copyright (c) Steve Scherf et al.
# Submitted via: CDex 1.50beta10
#
DISCID=920de80e
DTITLE=SoulCats - The Return of the Inflatable Soulcats
DYEAR=1900
DGENRE=
TTITLE0=You keep me hanging on
TTITLE1=Chain of fools
TTITLE2=Mojo Hannah
TTITLE3=Take me to the top
TTITLE4=Take me just as I am
TTITLE5=Signed Sealed Delivered
TTITLE6=Baby I love you
TTITLE7=Pick it up
TTITLE8=Can't leave him alone
TTITLE9=Apparently nothin'
TTITLE10=Money
TTITLE11=Two to tango
TTITLE12=I'll go crazy
TTITLE13=House Party
EXTD=
EXTT0=
EXTT1=
EXTT2=
EXTT3=
EXTT4=
EXTT5=
EXTT6=
EXTT7=
EXTT8=
EXTT9=
EXTT10=
EXTT11=
EXTT12=
EXTT13=
PLAYORDER=
